<svg xmlns="http://www.w3.org/2000/svg" viewBox="0 0 153 32" width="720" height="151" shape-rendering="crispEdges" role="img" aria-label="Palimpsest">
<title>Palimpsest</title>
<rect x="4" y="3" width="24" height="1" fill="#3a2717"/>
<rect x="2" y="4" width="2" height="1" fill="#3a2717"/>
<rect x="4" y="4" width="24" height="1" fill="#fbf2d6"/>
<rect x="28" y="4" width="2" height="1" fill="#3a2717"/>
<rect x="2" y="5" width="1" height="1" fill="#3a2717"/>
<rect x="3" y="5" width="1" height="1" fill="#b9995c"/>
<rect x="4" y="5" width="2" height="1" fill="#f2e2b8"/>
<rect x="6" y="5" width="1" height="1" fill="#dcc48f"/>
<rect x="7" y="5" width="18" height="1" fill="#f2e2b8"/>
<rect x="25" y="5" width="1" height="1" fill="#dcc48f"/>
<rect x="26" y="5" width="2" height="1" fill="#f2e2b8"/>
<rect x="28" y="5" width="1" height="1" fill="#b9995c"/>
<rect x="29" y="5" width="1" height="1" fill="#3a2717"/>
<rect x="2" y="6" width="2" height="1" fill="#3a2717"/>
<rect x="4" y="6" width="2" height="1" fill="#b9995c"/>
<rect x="6" y="6" width="1" height="1" fill="#3a2717"/>
<rect x="7" y="6" width="18" height="1" fill="#b9995c"/>
<rect x="25" y="6" width="1" height="1" fill="#3a2717"/>
<rect x="26" y="6" width="2" height="1" fill="#b9995c"/>
<rect x="28" y="6" width="2" height="1" fill="#3a2717"/>
<rect x="4" y="7" width="24" height="1" fill="#3a2717"/>
<rect x="6" y="8" width="1" height="1" fill="#3a2717"/>
<rect x="7" y="8" width="18" height="1" fill="#dcc48f"/>
<rect x="25" y="8" width="1" height="1" fill="#3a2717"/>
<rect x="37" y="8" width="8" height="1" fill="#3a2717"/>
<rect x="51" y="8" width="6" height="1" fill="#3a2717"/>
<rect x="61" y="8" width="2" height="1" fill="#3a2717"/>
<rect x="73" y="8" width="6" height="1" fill="#3a2717"/>
<rect x="81" y="8" width="2" height="1" fill="#3a2717"/>
<rect x="89" y="8" width="2" height="1" fill="#3a2717"/>
<rect x="93" y="8" width="8" height="1" fill="#3a2717"/>
<rect x="107" y="8" width="8" height="1" fill="#3a2717"/>
<rect x="117" y="8" width="10" height="1" fill="#3a2717"/>
<rect x="131" y="8" width="8" height="1" fill="#3a2717"/>
<rect x="141" y="8" width="10" height="1" fill="#3a2717"/>
<rect x="6" y="9" width="1" height="1" fill="#3a2717"/>
<rect x="7" y="9" width="17" height="1" fill="#f2e2b8"/>
<rect x="24" y="9" width="1" height="1" fill="#dcc48f"/>
<rect x="25" y="9" width="1" height="1" fill="#3a2717"/>
<rect x="37" y="9" width="8" height="1" fill="#3a2717"/>
<rect x="51" y="9" width="6" height="1" fill="#3a2717"/>
<rect x="61" y="9" width="2" height="1" fill="#3a2717"/>
<rect x="73" y="9" width="6" height="1" fill="#3a2717"/>
<rect x="81" y="9" width="2" height="1" fill="#3a2717"/>
<rect x="89" y="9" width="2" height="1" fill="#3a2717"/>
<rect x="93" y="9" width="8" height="1" fill="#3a2717"/>
<rect x="107" y="9" width="8" height="1" fill="#3a2717"/>
<rect x="117" y="9" width="10" height="1" fill="#3a2717"/>
<rect x="131" y="9" width="8" height="1" fill="#3a2717"/>
<rect x="141" y="9" width="10" height="1" fill="#3a2717"/>
<rect x="6" y="10" width="1" height="1" fill="#3a2717"/>
<rect x="7" y="10" width="2" height="1" fill="#f2e2b8"/>
<rect x="9" y="10" width="1" height="1" fill="#d6bf8e"/>
<rect x="10" y="10" width="2" height="1" fill="#f2e2b8"/>
<rect x="12" y="10" width="1" height="1" fill="#d6bf8e"/>
<rect x="13" y="10" width="5" height="1" fill="#f2e2b8"/>
<rect x="18" y="10" width="1" height="1" fill="#d6bf8e"/>
<rect x="19" y="10" width="2" height="1" fill="#f2e2b8"/>
<rect x="21" y="10" width="1" height="1" fill="#d6bf8e"/>
<rect x="22" y="10" width="2" height="1" fill="#f2e2b8"/>
<rect x="24" y="10" width="1" height="1" fill="#dcc48f"/>
<rect x="25" y="10" width="1" height="1" fill="#3a2717"/>
<rect x="37" y="10" width="2" height="1" fill="#3a2717"/>
<rect x="39" y="10" width="6" height="1" fill="#d9c7a0"/>
<rect x="45" y="10" width="2" height="1" fill="#3a2717"/>
<rect x="49" y="10" width="2" height="1" fill="#3a2717"/>
<rect x="53" y="10" width="4" height="1" fill="#d9c7a0"/>
<rect x="57" y="10" width="2" height="1" fill="#3a2717"/>
<rect x="61" y="10" width="2" height="1" fill="#3a2717"/>
<rect x="63" y="10" width="2" height="1" fill="#d9c7a0"/>
<rect x="75" y="10" width="2" height="1" fill="#3a2717"/>
<rect x="77" y="10" width="4" height="1" fill="#d9c7a0"/>
<rect x="81" y="10" width="4" height="1" fill="#3a2717"/>
<rect x="87" y="10" width="4" height="1" fill="#3a2717"/>
<rect x="91" y="10" width="2" height="1" fill="#d9c7a0"/>
<rect x="93" y="10" width="2" height="1" fill="#3a2717"/>
<rect x="95" y="10" width="6" height="1" fill="#d9c7a0"/>
<rect x="101" y="10" width="2" height="1" fill="#3a2717"/>
<rect x="105" y="10" width="2" height="1" fill="#3a2717"/>
<rect x="109" y="10" width="8" height="1" fill="#d9c7a0"/>
<rect x="117" y="10" width="2" height="1" fill="#3a2717"/>
<rect x="119" y="10" width="10" height="1" fill="#d9c7a0"/>
<rect x="129" y="10" width="2" height="1" fill="#3a2717"/>
<rect x="133" y="10" width="8" height="1" fill="#d9c7a0"/>
<rect x="143" y="10" width="2" height="1" fill="#d9c7a0"/>
<rect x="145" y="10" width="2" height="1" fill="#3a2717"/>
<rect x="147" y="10" width="6" height="1" fill="#d9c7a0"/>
<rect x="6" y="11" width="1" height="1" fill="#3a2717"/>
<rect x="7" y="11" width="1" height="1" fill="#f2e2b8"/>
<rect x="8" y="11" width="4" height="1" fill="#4b3423"/>
<rect x="12" y="11" width="1" height="1" fill="#d6bf8e"/>
<rect x="13" y="11" width="6" height="1" fill="#4b3423"/>
<rect x="19" y="11" width="1" height="1" fill="#f2e2b8"/>
<rect x="20" y="11" width="3" height="1" fill="#4b3423"/>
<rect x="23" y="11" width="1" height="1" fill="#f2e2b8"/>
<rect x="24" y="11" width="1" height="1" fill="#dcc48f"/>
<rect x="25" y="11" width="1" height="1" fill="#3a2717"/>
<rect x="37" y="11" width="2" height="1" fill="#3a2717"/>
<rect x="39" y="11" width="6" height="1" fill="#d9c7a0"/>
<rect x="45" y="11" width="2" height="1" fill="#3a2717"/>
<rect x="49" y="11" width="2" height="1" fill="#3a2717"/>
<rect x="53" y="11" width="4" height="1" fill="#d9c7a0"/>
<rect x="57" y="11" width="2" height="1" fill="#3a2717"/>
<rect x="61" y="11" width="2" height="1" fill="#3a2717"/>
<rect x="63" y="11" width="2" height="1" fill="#d9c7a0"/>
<rect x="75" y="11" width="2" height="1" fill="#3a2717"/>
<rect x="77" y="11" width="4" height="1" fill="#d9c7a0"/>
<rect x="81" y="11" width="4" height="1" fill="#3a2717"/>
<rect x="87" y="11" width="4" height="1" fill="#3a2717"/>
<rect x="91" y="11" width="2" height="1" fill="#d9c7a0"/>
<rect x="93" y="11" width="2" height="1" fill="#3a2717"/>
<rect x="95" y="11" width="6" height="1" fill="#d9c7a0"/>
<rect x="101" y="11" width="2" height="1" fill="#3a2717"/>
<rect x="105" y="11" width="2" height="1" fill="#3a2717"/>
<rect x="109" y="11" width="8" height="1" fill="#d9c7a0"/>
<rect x="117" y="11" width="2" height="1" fill="#3a2717"/>
<rect x="119" y="11" width="10" height="1" fill="#d9c7a0"/>
<rect x="129" y="11" width="2" height="1" fill="#3a2717"/>
<rect x="133" y="11" width="8" height="1" fill="#d9c7a0"/>
<rect x="143" y="11" width="2" height="1" fill="#d9c7a0"/>
<rect x="145" y="11" width="2" height="1" fill="#3a2717"/>
<rect x="147" y="11" width="6" height="1" fill="#d9c7a0"/>
<rect x="6" y="12" width="1" height="1" fill="#3a2717"/>
<rect x="7" y="12" width="2" height="1" fill="#f2e2b8"/>
<rect x="9" y="12" width="1" height="1" fill="#d6bf8e"/>
<rect x="10" y="12" width="2" height="1" fill="#f2e2b8"/>
<rect x="12" y="12" width="1" height="1" fill="#d6bf8e"/>
<rect x="13" y="12" width="2" height="1" fill="#f2e2b8"/>
<rect x="15" y="12" width="1" height="1" fill="#d6bf8e"/>
<rect x="16" y="12" width="2" height="1" fill="#f2e2b8"/>
<rect x="18" y="12" width="1" height="1" fill="#d6bf8e"/>
<rect x="19" y="12" width="5" height="1" fill="#f2e2b8"/>
<rect x="24" y="12" width="1" height="1" fill="#dcc48f"/>
<rect x="25" y="12" width="1" height="1" fill="#3a2717"/>
<rect x="37" y="12" width="2" height="1" fill="#3a2717"/>
<rect x="39" y="12" width="2" height="1" fill="#d9c7a0"/>
<rect x="45" y="12" width="2" height="1" fill="#3a2717"/>
<rect x="47" y="12" width="2" height="1" fill="#d9c7a0"/>
<rect x="49" y="12" width="2" height="1" fill="#3a2717"/>
<rect x="51" y="12" width="2" height="1" fill="#d9c7a0"/>
<rect x="57" y="12" width="2" height="1" fill="#3a2717"/>
<rect x="59" y="12" width="2" height="1" fill="#d9c7a0"/>
<rect x="61" y="12" width="2" height="1" fill="#3a2717"/>
<rect x="63" y="12" width="2" height="1" fill="#d9c7a0"/>
<rect x="75" y="12" width="2" height="1" fill="#3a2717"/>
<rect x="77" y="12" width="2" height="1" fill="#d9c7a0"/>
<rect x="81" y="12" width="2" height="1" fill="#3a2717"/>
<rect x="83" y="12" width="2" height="1" fill="#d9c7a0"/>
<rect x="85" y="12" width="2" height="1" fill="#3a2717"/>
<rect x="89" y="12" width="2" height="1" fill="#3a2717"/>
<rect x="91" y="12" width="2" height="1" fill="#d9c7a0"/>
<rect x="93" y="12" width="2" height="1" fill="#3a2717"/>
<rect x="95" y="12" width="2" height="1" fill="#d9c7a0"/>
<rect x="101" y="12" width="2" height="1" fill="#3a2717"/>
<rect x="103" y="12" width="2" height="1" fill="#d9c7a0"/>
<rect x="105" y="12" width="2" height="1" fill="#3a2717"/>
<rect x="107" y="12" width="2" height="1" fill="#d9c7a0"/>
<rect x="117" y="12" width="2" height="1" fill="#3a2717"/>
<rect x="119" y="12" width="2" height="1" fill="#d9c7a0"/>
<rect x="129" y="12" width="2" height="1" fill="#3a2717"/>
<rect x="131" y="12" width="2" height="1" fill="#d9c7a0"/>
<rect x="145" y="12" width="2" height="1" fill="#3a2717"/>
<rect x="147" y="12" width="2" height="1" fill="#d9c7a0"/>
<rect x="6" y="13" width="1" height="1" fill="#3a2717"/>
<rect x="7" y="13" width="5" height="1" fill="#f2e2b8"/>
<rect x="12" y="13" width="1" height="1" fill="#d6bf8e"/>
<rect x="13" y="13" width="2" height="1" fill="#f2e2b8"/>
<rect x="15" y="13" width="1" height="1" fill="#d6bf8e"/>
<rect x="16" y="13" width="2" height="1" fill="#f2e2b8"/>
<rect x="18" y="13" width="1" height="1" fill="#d6bf8e"/>
<rect x="19" y="13" width="2" height="1" fill="#f2e2b8"/>
<rect x="21" y="13" width="1" height="1" fill="#d6bf8e"/>
<rect x="22" y="13" width="2" height="1" fill="#f2e2b8"/>
<rect x="24" y="13" width="1" height="1" fill="#dcc48f"/>
<rect x="25" y="13" width="1" height="1" fill="#3a2717"/>
<rect x="37" y="13" width="2" height="1" fill="#3a2717"/>
<rect x="39" y="13" width="2" height="1" fill="#d9c7a0"/>
<rect x="45" y="13" width="2" height="1" fill="#3a2717"/>
<rect x="47" y="13" width="2" height="1" fill="#d9c7a0"/>
<rect x="49" y="13" width="2" height="1" fill="#3a2717"/>
<rect x="51" y="13" width="2" height="1" fill="#d9c7a0"/>
<rect x="57" y="13" width="2" height="1" fill="#3a2717"/>
<rect x="59" y="13" width="2" height="1" fill="#d9c7a0"/>
<rect x="61" y="13" width="2" height="1" fill="#3a2717"/>
<rect x="63" y="13" width="2" height="1" fill="#d9c7a0"/>
<rect x="75" y="13" width="2" height="1" fill="#3a2717"/>
<rect x="77" y="13" width="2" height="1" fill="#d9c7a0"/>
<rect x="81" y="13" width="2" height="1" fill="#3a2717"/>
<rect x="83" y="13" width="2" height="1" fill="#d9c7a0"/>
<rect x="85" y="13" width="2" height="1" fill="#3a2717"/>
<rect x="89" y="13" width="2" height="1" fill="#3a2717"/>
<rect x="91" y="13" width="2" height="1" fill="#d9c7a0"/>
<rect x="93" y="13" width="2" height="1" fill="#3a2717"/>
<rect x="95" y="13" width="2" height="1" fill="#d9c7a0"/>
<rect x="101" y="13" width="2" height="1" fill="#3a2717"/>
<rect x="103" y="13" width="2" height="1" fill="#d9c7a0"/>
<rect x="105" y="13" width="2" height="1" fill="#3a2717"/>
<rect x="107" y="13" width="2" height="1" fill="#d9c7a0"/>
<rect x="117" y="13" width="2" height="1" fill="#3a2717"/>
<rect x="119" y="13" width="2" height="1" fill="#d9c7a0"/>
<rect x="129" y="13" width="2" height="1" fill="#3a2717"/>
<rect x="131" y="13" width="2" height="1" fill="#d9c7a0"/>
<rect x="145" y="13" width="2" height="1" fill="#3a2717"/>
<rect x="147" y="13" width="2" height="1" fill="#d9c7a0"/>
<rect x="6" y="14" width="1" height="1" fill="#3a2717"/>
<rect x="7" y="14" width="1" height="1" fill="#f2e2b8"/>
<rect x="8" y="14" width="6" height="1" fill="#4b3423"/>
<rect x="14" y="14" width="1" height="1" fill="#f2e2b8"/>
<rect x="15" y="14" width="3" height="1" fill="#4b3423"/>
<rect x="18" y="14" width="1" height="1" fill="#d6bf8e"/>
<rect x="19" y="14" width="5" height="1" fill="#4b3423"/>
<rect x="24" y="14" width="1" height="1" fill="#dcc48f"/>
<rect x="25" y="14" width="1" height="1" fill="#3a2717"/>
<rect x="37" y="14" width="8" height="1" fill="#3a2717"/>
<rect x="47" y="14" width="2" height="1" fill="#d9c7a0"/>
<rect x="49" y="14" width="10" height="1" fill="#3a2717"/>
<rect x="59" y="14" width="2" height="1" fill="#d9c7a0"/>
<rect x="61" y="14" width="2" height="1" fill="#3a2717"/>
<rect x="63" y="14" width="2" height="1" fill="#d9c7a0"/>
<rect x="75" y="14" width="2" height="1" fill="#3a2717"/>
<rect x="77" y="14" width="2" height="1" fill="#d9c7a0"/>
<rect x="81" y="14" width="2" height="1" fill="#3a2717"/>
<rect x="83" y="14" width="2" height="1" fill="#d9c7a0"/>
<rect x="85" y="14" width="2" height="1" fill="#3a2717"/>
<rect x="87" y="14" width="2" height="1" fill="#d9c7a0"/>
<rect x="89" y="14" width="2" height="1" fill="#3a2717"/>
<rect x="91" y="14" width="2" height="1" fill="#d9c7a0"/>
<rect x="93" y="14" width="8" height="1" fill="#3a2717"/>
<rect x="103" y="14" width="2" height="1" fill="#d9c7a0"/>
<rect x="107" y="14" width="6" height="1" fill="#3a2717"/>
<rect x="117" y="14" width="8" height="1" fill="#3a2717"/>
<rect x="131" y="14" width="6" height="1" fill="#3a2717"/>
<rect x="145" y="14" width="2" height="1" fill="#3a2717"/>
<rect x="147" y="14" width="2" height="1" fill="#d9c7a0"/>
<rect x="6" y="15" width="1" height="1" fill="#3a2717"/>
<rect x="7" y="15" width="2" height="1" fill="#f2e2b8"/>
<rect x="9" y="15" width="1" height="1" fill="#d6bf8e"/>
<rect x="10" y="15" width="2" height="1" fill="#f2e2b8"/>
<rect x="12" y="15" width="1" height="1" fill="#d6bf8e"/>
<rect x="13" y="15" width="5" height="1" fill="#f2e2b8"/>
<rect x="18" y="15" width="1" height="1" fill="#d6bf8e"/>
<rect x="19" y="15" width="2" height="1" fill="#f2e2b8"/>
<rect x="21" y="15" width="1" height="1" fill="#d6bf8e"/>
<rect x="22" y="15" width="2" height="1" fill="#f2e2b8"/>
<rect x="24" y="15" width="1" height="1" fill="#dcc48f"/>
<rect x="25" y="15" width="1" height="1" fill="#3a2717"/>
<rect x="37" y="15" width="8" height="1" fill="#3a2717"/>
<rect x="47" y="15" width="2" height="1" fill="#d9c7a0"/>
<rect x="49" y="15" width="10" height="1" fill="#3a2717"/>
<rect x="59" y="15" width="2" height="1" fill="#d9c7a0"/>
<rect x="61" y="15" width="2" height="1" fill="#3a2717"/>
<rect x="63" y="15" width="2" height="1" fill="#d9c7a0"/>
<rect x="75" y="15" width="2" height="1" fill="#3a2717"/>
<rect x="77" y="15" width="2" height="1" fill="#d9c7a0"/>
<rect x="81" y="15" width="2" height="1" fill="#3a2717"/>
<rect x="83" y="15" width="2" height="1" fill="#d9c7a0"/>
<rect x="85" y="15" width="2" height="1" fill="#3a2717"/>
<rect x="87" y="15" width="2" height="1" fill="#d9c7a0"/>
<rect x="89" y="15" width="2" height="1" fill="#3a2717"/>
<rect x="91" y="15" width="2" height="1" fill="#d9c7a0"/>
<rect x="93" y="15" width="8" height="1" fill="#3a2717"/>
<rect x="103" y="15" width="2" height="1" fill="#d9c7a0"/>
<rect x="107" y="15" width="6" height="1" fill="#3a2717"/>
<rect x="117" y="15" width="8" height="1" fill="#3a2717"/>
<rect x="131" y="15" width="6" height="1" fill="#3a2717"/>
<rect x="145" y="15" width="2" height="1" fill="#3a2717"/>
<rect x="147" y="15" width="2" height="1" fill="#d9c7a0"/>
<rect x="6" y="16" width="1" height="1" fill="#3a2717"/>
<rect x="7" y="16" width="2" height="1" fill="#f2e2b8"/>
<rect x="9" y="16" width="1" height="1" fill="#d6bf8e"/>
<rect x="10" y="16" width="2" height="1" fill="#f2e2b8"/>
<rect x="12" y="16" width="1" height="1" fill="#d6bf8e"/>
<rect x="13" y="16" width="2" height="1" fill="#f2e2b8"/>
<rect x="15" y="16" width="1" height="1" fill="#d6bf8e"/>
<rect x="16" y="16" width="5" height="1" fill="#f2e2b8"/>
<rect x="21" y="16" width="1" height="1" fill="#d6bf8e"/>
<rect x="22" y="16" width="2" height="1" fill="#f2e2b8"/>
<rect x="24" y="16" width="1" height="1" fill="#dcc48f"/>
<rect x="25" y="16" width="1" height="1" fill="#3a2717"/>
<rect x="37" y="16" width="2" height="1" fill="#3a2717"/>
<rect x="39" y="16" width="8" height="1" fill="#d9c7a0"/>
<rect x="49" y="16" width="2" height="1" fill="#3a2717"/>
<rect x="51" y="16" width="6" height="1" fill="#d9c7a0"/>
<rect x="57" y="16" width="2" height="1" fill="#3a2717"/>
<rect x="59" y="16" width="2" height="1" fill="#d9c7a0"/>
<rect x="61" y="16" width="2" height="1" fill="#3a2717"/>
<rect x="63" y="16" width="2" height="1" fill="#d9c7a0"/>
<rect x="75" y="16" width="2" height="1" fill="#3a2717"/>
<rect x="77" y="16" width="2" height="1" fill="#d9c7a0"/>
<rect x="81" y="16" width="2" height="1" fill="#3a2717"/>
<rect x="83" y="16" width="2" height="1" fill="#d9c7a0"/>
<rect x="87" y="16" width="2" height="1" fill="#d9c7a0"/>
<rect x="89" y="16" width="2" height="1" fill="#3a2717"/>
<rect x="91" y="16" width="2" height="1" fill="#d9c7a0"/>
<rect x="93" y="16" width="2" height="1" fill="#3a2717"/>
<rect x="95" y="16" width="8" height="1" fill="#d9c7a0"/>
<rect x="109" y="16" width="4" height="1" fill="#d9c7a0"/>
<rect x="113" y="16" width="2" height="1" fill="#3a2717"/>
<rect x="117" y="16" width="2" height="1" fill="#3a2717"/>
<rect x="119" y="16" width="8" height="1" fill="#d9c7a0"/>
<rect x="133" y="16" width="4" height="1" fill="#d9c7a0"/>
<rect x="137" y="16" width="2" height="1" fill="#3a2717"/>
<rect x="145" y="16" width="2" height="1" fill="#3a2717"/>
<rect x="147" y="16" width="2" height="1" fill="#d9c7a0"/>
<rect x="6" y="17" width="1" height="1" fill="#3a2717"/>
<rect x="7" y="17" width="1" height="1" fill="#f2e2b8"/>
<rect x="8" y="17" width="3" height="1" fill="#4b3423"/>
<rect x="11" y="17" width="1" height="1" fill="#f2e2b8"/>
<rect x="12" y="17" width="5" height="1" fill="#4b3423"/>
<rect x="17" y="17" width="1" height="1" fill="#f2e2b8"/>
<rect x="18" y="17" width="5" height="1" fill="#4b3423"/>
<rect x="23" y="17" width="1" height="1" fill="#f2e2b8"/>
<rect x="24" y="17" width="1" height="1" fill="#dcc48f"/>
<rect x="25" y="17" width="1" height="1" fill="#3a2717"/>
<rect x="37" y="17" width="2" height="1" fill="#3a2717"/>
<rect x="39" y="17" width="8" height="1" fill="#d9c7a0"/>
<rect x="49" y="17" width="2" height="1" fill="#3a2717"/>
<rect x="51" y="17" width="6" height="1" fill="#d9c7a0"/>
<rect x="57" y="17" width="2" height="1" fill="#3a2717"/>
<rect x="59" y="17" width="2" height="1" fill="#d9c7a0"/>
<rect x="61" y="17" width="2" height="1" fill="#3a2717"/>
<rect x="63" y="17" width="2" height="1" fill="#d9c7a0"/>
<rect x="75" y="17" width="2" height="1" fill="#3a2717"/>
<rect x="77" y="17" width="2" height="1" fill="#d9c7a0"/>
<rect x="81" y="17" width="2" height="1" fill="#3a2717"/>
<rect x="83" y="17" width="2" height="1" fill="#d9c7a0"/>
<rect x="87" y="17" width="2" height="1" fill="#d9c7a0"/>
<rect x="89" y="17" width="2" height="1" fill="#3a2717"/>
<rect x="91" y="17" width="2" height="1" fill="#d9c7a0"/>
<rect x="93" y="17" width="2" height="1" fill="#3a2717"/>
<rect x="95" y="17" width="8" height="1" fill="#d9c7a0"/>
<rect x="109" y="17" width="4" height="1" fill="#d9c7a0"/>
<rect x="113" y="17" width="2" height="1" fill="#3a2717"/>
<rect x="117" y="17" width="2" height="1" fill="#3a2717"/>
<rect x="119" y="17" width="8" height="1" fill="#d9c7a0"/>
<rect x="133" y="17" width="4" height="1" fill="#d9c7a0"/>
<rect x="137" y="17" width="2" height="1" fill="#3a2717"/>
<rect x="145" y="17" width="2" height="1" fill="#3a2717"/>
<rect x="147" y="17" width="2" height="1" fill="#d9c7a0"/>
<rect x="6" y="18" width="1" height="1" fill="#3a2717"/>
<rect x="7" y="18" width="5" height="1" fill="#f2e2b8"/>
<rect x="12" y="18" width="1" height="1" fill="#d6bf8e"/>
<rect x="13" y="18" width="2" height="1" fill="#f2e2b8"/>
<rect x="15" y="18" width="1" height="1" fill="#d6bf8e"/>
<rect x="16" y="18" width="2" height="1" fill="#f2e2b8"/>
<rect x="18" y="18" width="1" height="1" fill="#d6bf8e"/>
<rect x="19" y="18" width="2" height="1" fill="#f2e2b8"/>
<rect x="21" y="18" width="1" height="1" fill="#d6bf8e"/>
<rect x="22" y="18" width="2" height="1" fill="#f2e2b8"/>
<rect x="24" y="18" width="1" height="1" fill="#dcc48f"/>
<rect x="25" y="18" width="1" height="1" fill="#3a2717"/>
<rect x="37" y="18" width="2" height="1" fill="#3a2717"/>
<rect x="39" y="18" width="2" height="1" fill="#d9c7a0"/>
<rect x="49" y="18" width="2" height="1" fill="#3a2717"/>
<rect x="51" y="18" width="2" height="1" fill="#d9c7a0"/>
<rect x="57" y="18" width="2" height="1" fill="#3a2717"/>
<rect x="59" y="18" width="2" height="1" fill="#d9c7a0"/>
<rect x="61" y="18" width="2" height="1" fill="#3a2717"/>
<rect x="63" y="18" width="2" height="1" fill="#d9c7a0"/>
<rect x="75" y="18" width="2" height="1" fill="#3a2717"/>
<rect x="77" y="18" width="2" height="1" fill="#d9c7a0"/>
<rect x="81" y="18" width="2" height="1" fill="#3a2717"/>
<rect x="83" y="18" width="2" height="1" fill="#d9c7a0"/>
<rect x="89" y="18" width="2" height="1" fill="#3a2717"/>
<rect x="91" y="18" width="2" height="1" fill="#d9c7a0"/>
<rect x="93" y="18" width="2" height="1" fill="#3a2717"/>
<rect x="95" y="18" width="2" height="1" fill="#d9c7a0"/>
<rect x="113" y="18" width="2" height="1" fill="#3a2717"/>
<rect x="115" y="18" width="2" height="1" fill="#d9c7a0"/>
<rect x="117" y="18" width="2" height="1" fill="#3a2717"/>
<rect x="119" y="18" width="2" height="1" fill="#d9c7a0"/>
<rect x="137" y="18" width="2" height="1" fill="#3a2717"/>
<rect x="139" y="18" width="2" height="1" fill="#d9c7a0"/>
<rect x="145" y="18" width="2" height="1" fill="#3a2717"/>
<rect x="147" y="18" width="2" height="1" fill="#d9c7a0"/>
<rect x="6" y="19" width="1" height="1" fill="#3a2717"/>
<rect x="7" y="19" width="2" height="1" fill="#f2e2b8"/>
<rect x="9" y="19" width="1" height="1" fill="#d6bf8e"/>
<rect x="10" y="19" width="5" height="1" fill="#f2e2b8"/>
<rect x="15" y="19" width="1" height="1" fill="#d6bf8e"/>
<rect x="16" y="19" width="2" height="1" fill="#f2e2b8"/>
<rect x="18" y="19" width="1" height="1" fill="#3a2717"/>
<rect x="19" y="19" width="2" height="1" fill="#f2e2b8"/>
<rect x="21" y="19" width="1" height="1" fill="#d6bf8e"/>
<rect x="22" y="19" width="2" height="1" fill="#f2e2b8"/>
<rect x="24" y="19" width="1" height="1" fill="#dcc48f"/>
<rect x="25" y="19" width="1" height="1" fill="#3a2717"/>
<rect x="37" y="19" width="2" height="1" fill="#3a2717"/>
<rect x="39" y="19" width="2" height="1" fill="#d9c7a0"/>
<rect x="49" y="19" width="2" height="1" fill="#3a2717"/>
<rect x="51" y="19" width="2" height="1" fill="#d9c7a0"/>
<rect x="57" y="19" width="2" height="1" fill="#3a2717"/>
<rect x="59" y="19" width="2" height="1" fill="#d9c7a0"/>
<rect x="61" y="19" width="2" height="1" fill="#3a2717"/>
<rect x="63" y="19" width="2" height="1" fill="#d9c7a0"/>
<rect x="75" y="19" width="2" height="1" fill="#3a2717"/>
<rect x="77" y="19" width="2" height="1" fill="#d9c7a0"/>
<rect x="81" y="19" width="2" height="1" fill="#3a2717"/>
<rect x="83" y="19" width="2" height="1" fill="#d9c7a0"/>
<rect x="89" y="19" width="2" height="1" fill="#3a2717"/>
<rect x="91" y="19" width="2" height="1" fill="#d9c7a0"/>
<rect x="93" y="19" width="2" height="1" fill="#3a2717"/>
<rect x="95" y="19" width="2" height="1" fill="#d9c7a0"/>
<rect x="113" y="19" width="2" height="1" fill="#3a2717"/>
<rect x="115" y="19" width="2" height="1" fill="#d9c7a0"/>
<rect x="117" y="19" width="2" height="1" fill="#3a2717"/>
<rect x="119" y="19" width="2" height="1" fill="#d9c7a0"/>
<rect x="137" y="19" width="2" height="1" fill="#3a2717"/>
<rect x="139" y="19" width="2" height="1" fill="#d9c7a0"/>
<rect x="145" y="19" width="2" height="1" fill="#3a2717"/>
<rect x="147" y="19" width="2" height="1" fill="#d9c7a0"/>
<rect x="6" y="20" width="1" height="1" fill="#3a2717"/>
<rect x="7" y="20" width="1" height="1" fill="#f2e2b8"/>
<rect x="8" y="20" width="5" height="1" fill="#c8623a"/>
<rect x="13" y="20" width="1" height="1" fill="#f2e2b8"/>
<rect x="14" y="20" width="3" height="1" fill="#c8623a"/>
<rect x="17" y="20" width="1" height="1" fill="#f2e2b8"/>
<rect x="18" y="20" width="1" height="1" fill="#3a2717"/>
<rect x="19" y="20" width="2" height="1" fill="#f2e2b8"/>
<rect x="21" y="20" width="1" height="1" fill="#d6bf8e"/>
<rect x="22" y="20" width="2" height="1" fill="#f2e2b8"/>
<rect x="24" y="20" width="1" height="1" fill="#dcc48f"/>
<rect x="25" y="20" width="1" height="1" fill="#3a2717"/>
<rect x="37" y="20" width="2" height="1" fill="#3a2717"/>
<rect x="39" y="20" width="2" height="1" fill="#d9c7a0"/>
<rect x="49" y="20" width="2" height="1" fill="#3a2717"/>
<rect x="51" y="20" width="2" height="1" fill="#d9c7a0"/>
<rect x="57" y="20" width="2" height="1" fill="#3a2717"/>
<rect x="59" y="20" width="2" height="1" fill="#d9c7a0"/>
<rect x="61" y="20" width="10" height="1" fill="#3a2717"/>
<rect x="73" y="20" width="6" height="1" fill="#3a2717"/>
<rect x="81" y="20" width="2" height="1" fill="#3a2717"/>
<rect x="83" y="20" width="2" height="1" fill="#d9c7a0"/>
<rect x="89" y="20" width="2" height="1" fill="#3a2717"/>
<rect x="91" y="20" width="2" height="1" fill="#d9c7a0"/>
<rect x="93" y="20" width="2" height="1" fill="#3a2717"/>
<rect x="95" y="20" width="2" height="1" fill="#d9c7a0"/>
<rect x="105" y="20" width="8" height="1" fill="#3a2717"/>
<rect x="115" y="20" width="2" height="1" fill="#d9c7a0"/>
<rect x="117" y="20" width="10" height="1" fill="#3a2717"/>
<rect x="129" y="20" width="8" height="1" fill="#3a2717"/>
<rect x="139" y="20" width="2" height="1" fill="#d9c7a0"/>
<rect x="145" y="20" width="2" height="1" fill="#3a2717"/>
<rect x="147" y="20" width="2" height="1" fill="#d9c7a0"/>
<rect x="6" y="21" width="1" height="1" fill="#3a2717"/>
<rect x="7" y="21" width="2" height="1" fill="#f2e2b8"/>
<rect x="9" y="21" width="1" height="1" fill="#d6bf8e"/>
<rect x="10" y="21" width="2" height="1" fill="#f2e2b8"/>
<rect x="12" y="21" width="1" height="1" fill="#d6bf8e"/>
<rect x="13" y="21" width="2" height="1" fill="#f2e2b8"/>
<rect x="15" y="21" width="1" height="1" fill="#d6bf8e"/>
<rect x="16" y="21" width="5" height="1" fill="#f2e2b8"/>
<rect x="21" y="21" width="1" height="1" fill="#d6bf8e"/>
<rect x="22" y="21" width="2" height="1" fill="#f2e2b8"/>
<rect x="24" y="21" width="1" height="1" fill="#dcc48f"/>
<rect x="25" y="21" width="1" height="1" fill="#3a2717"/>
<rect x="37" y="21" width="2" height="1" fill="#3a2717"/>
<rect x="39" y="21" width="2" height="1" fill="#d9c7a0"/>
<rect x="49" y="21" width="2" height="1" fill="#3a2717"/>
<rect x="51" y="21" width="2" height="1" fill="#d9c7a0"/>
<rect x="57" y="21" width="2" height="1" fill="#3a2717"/>
<rect x="59" y="21" width="2" height="1" fill="#d9c7a0"/>
<rect x="61" y="21" width="10" height="1" fill="#3a2717"/>
<rect x="73" y="21" width="6" height="1" fill="#3a2717"/>
<rect x="81" y="21" width="2" height="1" fill="#3a2717"/>
<rect x="83" y="21" width="2" height="1" fill="#d9c7a0"/>
<rect x="89" y="21" width="2" height="1" fill="#3a2717"/>
<rect x="91" y="21" width="2" height="1" fill="#d9c7a0"/>
<rect x="93" y="21" width="2" height="1" fill="#3a2717"/>
<rect x="95" y="21" width="2" height="1" fill="#d9c7a0"/>
<rect x="105" y="21" width="8" height="1" fill="#3a2717"/>
<rect x="115" y="21" width="2" height="1" fill="#d9c7a0"/>
<rect x="117" y="21" width="10" height="1" fill="#3a2717"/>
<rect x="129" y="21" width="8" height="1" fill="#3a2717"/>
<rect x="139" y="21" width="2" height="1" fill="#d9c7a0"/>
<rect x="145" y="21" width="2" height="1" fill="#3a2717"/>
<rect x="147" y="21" width="2" height="1" fill="#d9c7a0"/>
<rect x="6" y="22" width="1" height="1" fill="#3a2717"/>
<rect x="7" y="22" width="2" height="1" fill="#f2e2b8"/>
<rect x="9" y="22" width="1" height="1" fill="#d6bf8e"/>
<rect x="10" y="22" width="2" height="1" fill="#f2e2b8"/>
<rect x="12" y="22" width="1" height="1" fill="#d6bf8e"/>
<rect x="13" y="22" width="2" height="1" fill="#f2e2b8"/>
<rect x="15" y="22" width="1" height="1" fill="#d6bf8e"/>
<rect x="16" y="22" width="2" height="1" fill="#f2e2b8"/>
<rect x="18" y="22" width="1" height="1" fill="#d6bf8e"/>
<rect x="19" y="22" width="5" height="1" fill="#f2e2b8"/>
<rect x="24" y="22" width="1" height="1" fill="#dcc48f"/>
<rect x="25" y="22" width="1" height="1" fill="#3a2717"/>
<rect x="39" y="22" width="2" height="1" fill="#d9c7a0"/>
<rect x="51" y="22" width="2" height="1" fill="#d9c7a0"/>
<rect x="59" y="22" width="2" height="1" fill="#d9c7a0"/>
<rect x="63" y="22" width="10" height="1" fill="#d9c7a0"/>
<rect x="75" y="22" width="6" height="1" fill="#d9c7a0"/>
<rect x="83" y="22" width="2" height="1" fill="#d9c7a0"/>
<rect x="91" y="22" width="2" height="1" fill="#d9c7a0"/>
<rect x="95" y="22" width="2" height="1" fill="#d9c7a0"/>
<rect x="107" y="22" width="8" height="1" fill="#d9c7a0"/>
<rect x="119" y="22" width="10" height="1" fill="#d9c7a0"/>
<rect x="131" y="22" width="8" height="1" fill="#d9c7a0"/>
<rect x="147" y="22" width="2" height="1" fill="#d9c7a0"/>
<rect x="6" y="23" width="1" height="1" fill="#3a2717"/>
<rect x="7" y="23" width="17" height="1" fill="#f2e2b8"/>
<rect x="24" y="23" width="1" height="1" fill="#dcc48f"/>
<rect x="25" y="23" width="1" height="1" fill="#3a2717"/>
<rect x="39" y="23" width="2" height="1" fill="#d9c7a0"/>
<rect x="51" y="23" width="2" height="1" fill="#d9c7a0"/>
<rect x="59" y="23" width="2" height="1" fill="#d9c7a0"/>
<rect x="63" y="23" width="10" height="1" fill="#d9c7a0"/>
<rect x="75" y="23" width="6" height="1" fill="#d9c7a0"/>
<rect x="83" y="23" width="2" height="1" fill="#d9c7a0"/>
<rect x="91" y="23" width="2" height="1" fill="#d9c7a0"/>
<rect x="95" y="23" width="2" height="1" fill="#d9c7a0"/>
<rect x="107" y="23" width="8" height="1" fill="#d9c7a0"/>
<rect x="119" y="23" width="10" height="1" fill="#d9c7a0"/>
<rect x="131" y="23" width="8" height="1" fill="#d9c7a0"/>
<rect x="147" y="23" width="2" height="1" fill="#d9c7a0"/>
<rect x="4" y="24" width="24" height="1" fill="#3a2717"/>
<rect x="2" y="25" width="2" height="1" fill="#3a2717"/>
<rect x="4" y="25" width="24" height="1" fill="#fbf2d6"/>
<rect x="28" y="25" width="2" height="1" fill="#3a2717"/>
<rect x="2" y="26" width="1" height="1" fill="#3a2717"/>
<rect x="3" y="26" width="1" height="1" fill="#b9995c"/>
<rect x="4" y="26" width="2" height="1" fill="#f2e2b8"/>
<rect x="6" y="26" width="1" height="1" fill="#dcc48f"/>
<rect x="7" y="26" width="18" height="1" fill="#f2e2b8"/>
<rect x="25" y="26" width="1" height="1" fill="#dcc48f"/>
<rect x="26" y="26" width="2" height="1" fill="#f2e2b8"/>
<rect x="28" y="26" width="1" height="1" fill="#b9995c"/>
<rect x="29" y="26" width="1" height="1" fill="#3a2717"/>
<rect x="2" y="27" width="2" height="1" fill="#3a2717"/>
<rect x="4" y="27" width="2" height="1" fill="#b9995c"/>
<rect x="6" y="27" width="1" height="1" fill="#3a2717"/>
<rect x="7" y="27" width="18" height="1" fill="#b9995c"/>
<rect x="25" y="27" width="1" height="1" fill="#3a2717"/>
<rect x="26" y="27" width="2" height="1" fill="#b9995c"/>
<rect x="28" y="27" width="2" height="1" fill="#3a2717"/>
<rect x="4" y="28" width="24" height="1" fill="#3a2717"/>
</svg>
